<svg width="0" height="0" class="hidden">
	<symbol xmlns="http://www.w3.org/2000/svg" viewBox="0 0 492 492" id="add">
		<path d="M465.064 207.566h.028-180.656V27.25c0-14.84-12.016-27.248-26.856-27.248h-23.116c-14.836 0-26.904 12.408-26.904 27.248v180.316H26.908c-14.832 0-26.908 12-26.908 26.844v23.248c0 14.832 12.072 26.78 26.908 26.78h180.656v180.968c0 14.832 12.064 26.592 26.904 26.592h23.116c14.84 0 26.856-11.764 26.856-26.592V284.438h180.624c14.84 0 26.936-11.952 26.936-26.78V234.41c0-14.844-12.096-26.844-26.936-26.844z"></path>
	</symbol>
	<symbol xmlns="http://www.w3.org/2000/svg" viewBox="0 0 486.4 486.4" id="garbage">
		<path d="M446 70H344.8V53.5c0-29.5-24-53.5-53.5-53.5h-96.2c-29.5 0-53.5 24-53.5 53.5V70H40.4c-7.5 0-13.5 6-13.5 13.5S32.9 97 40.4 97h24.4v317.2c0 39.8 32.4 72.2 72.2 72.2h212.4c39.8 0 72.2-32.4 72.2-72.2V97H446c7.5 0 13.5-6 13.5-13.5S453.5 70 446 70zM168.6 53.5c0-14.6 11.9-26.5 26.5-26.5h96.2c14.6 0 26.5 11.9 26.5 26.5V70H168.6V53.5zm226 360.7c0 24.9-20.3 45.2-45.2 45.2H137c-24.9 0-45.2-20.3-45.2-45.2V97h302.9v317.2h-.1z"></path>
		<path d="M243.2 411c7.5 0 13.5-6 13.5-13.5V158.9c0-7.5-6-13.5-13.5-13.5s-13.5 6-13.5 13.5v238.5c0 7.5 6 13.6 13.5 13.6zm-88.1-14.9c7.5 0 13.5-6 13.5-13.5V173.7c0-7.5-6-13.5-13.5-13.5s-13.5 6-13.5 13.5v208.9c0 7.5 6.1 13.5 13.5 13.5zm176.2 0c7.5 0 13.5-6 13.5-13.5V173.7c0-7.5-6-13.5-13.5-13.5s-13.5 6-13.5 13.5v208.9c0 7.5 6 13.5 13.5 13.5z"></path>
	</symbol>
	<symbol xmlns="http://www.w3.org/2000/svg" viewBox="0 0 46 46" id="fulfilled">
		<circle fill="#4CAF50" cx="24" cy="24" r="21"/>
		<polygon fill="#CCFF90" points="34.6,14.6 21,28.2 15.4,22.6 12.6,25.4 21,33.8 37.4,17.4"/>
	</symbol>
	<symbol xmlns="http://www.w3.org/2000/svg" viewBox="0 0 30 30" id="reject" style="fill:#ff002e;">
			<path d="M16,29A13,13,0,1,1,29,16,13,13,0,0,1,16,29ZM16,5A11,11,0,1,0,27,16,11,11,0,0,0,16,5Z"/>
			<path d="M11.76,21.24a1,1,0,0,1-.71-.29,1,1,0,0,1,0-1.41l8.49-8.49A1,1,0,0,1,21,12.46L12.46,21A1,1,0,0,1,11.76,21.24Z"/>
			<path d="M20.24,21.24a1,1,0,0,1-.7-.29l-8.49-8.49a1,1,0,0,1,1.41-1.41L21,19.54A1,1,0,0,1,21,21,1,1,0,0,1,20.24,21.24Z"/>
	</symbol>
	<symbol xmlns="http://www.w3.org/2000/svg" viewBox="0 0 64 64" id="home">
		<path d="M63.663,29.424c-0.143-1.093-0.701-2.065-1.575-2.737l-11.715-9.021V8.608c0-2.275-1.851-4.126-4.125-4.126
		c-2.273,0-4.125,1.851-4.125,4.126v2.705l-7.758-5.975c-0.718-0.551-1.612-0.856-2.517-0.856c-0.906,0-1.801,0.304-2.519,0.857
		L1.606,26.687c-1.802,1.389-2.139,3.983-0.751,5.785c0.788,1.022,1.979,1.608,3.271,1.608c0.664,0,1.302-0.153,1.88-0.451V55.09
		c0,2.275,1.851,4.127,4.126,4.127h18.534V39.732h6.351v19.482h18.271c2.274,0,4.125-1.85,4.125-4.127V33.472
		c0.649,0.399,1.387,0.608,2.157,0.608c1.289,0,2.482-0.586,3.27-1.606C63.514,31.601,63.807,30.518,63.663,29.424z M59.819,30.144
		c-0.08,0.105-0.189,0.122-0.247,0.122c-0.069,0-0.132-0.021-0.188-0.065L53.6,25.748V55.09c0,0.173-0.14,0.312-0.311,0.312H38.832
		l0.001-19.484H24.852v19.484H10.132c-0.171,0-0.31-0.141-0.31-0.312V25.96L4.315,30.2c-0.056,0.043-0.119,0.065-0.188,0.065
		c-0.059,0-0.167-0.017-0.248-0.121c-0.065-0.084-0.07-0.171-0.062-0.229c0.007-0.058,0.034-0.141,0.118-0.205L31.661,8.363
		c0.138-0.105,0.239-0.106,0.379,0l13.899,10.703V8.608c0-0.172,0.14-0.311,0.311-0.311s0.312,0.139,0.312,0.311v10.935
		l13.205,10.166c0.084,0.064,0.108,0.147,0.116,0.205C59.891,29.975,59.885,30.062,59.819,30.144z"/>
	</symbol>
	<symbol xmlns="http://www.w3.org/2000/svg" viewBox="0 0 24 24" id="github">
		<path d="M12 .297c-6.63 0-12 5.373-12 12 0 5.303 3.438 9.8 8.205 11.385.6.113.82-.258.82-.577 0-.285-.01-1.04-.015-2.04-3.338.724-4.042-1.61-4.042-1.61C4.422 18.07 3.633 17.7 3.633 17.7c-1.087-.744.084-.729.084-.729 1.205.084 1.838 1.236 1.838 1.236 1.07 1.835 2.809 1.305 3.495.998.108-.776.417-1.305.76-1.605-2.665-.3-5.466-1.332-5.466-5.93 0-1.31.465-2.38 1.235-3.22-.135-.303-.54-1.523.105-3.176 0 0 1.005-.322 3.3 1.23.96-.267 1.98-.399 3-.405 1.02.006 2.04.138 3 .405 2.28-1.552 3.285-1.23 3.285-1.23.645 1.653.24 2.873.12 3.176.765.84 1.23 1.91 1.23 3.22 0 4.61-2.805 5.625-5.475 5.92.42.36.81 1.096.81 2.22 0 1.606-.015 2.896-.015 3.286 0 .315.21.69.825.57C20.565 22.092 24 17.592 24 12.297c0-6.627-5.373-12-12-12"/>
	</symbol>
	<symbol xmlns="http://www.w3.org/2000/svg" viewBox="0 0 24 24" id="gmail">
		<path d="M24 5.457v13.909c0 .904-.732 1.636-1.636 1.636h-3.819V11.73L12 16.64l-6.545-4.91v9.273H1.636A1.636 1.636 0 0 1 0 19.366V5.457c0-2.023 2.309-3.178 3.927-1.964L5.455 4.64 12 9.548l6.545-4.91 1.528-1.145C21.69 2.28 24 3.434 24 5.457z"/>	</symbol>
</svg>
